inDegrees=no
num_controls=7
num_derivatives=13
num_iterations=90
num_multipliers=7
num_parameters=0
num_slacks=7
num_states=26
objective=0.342537
objective_accelerations=0.023086
objective_balance=0.000859
objective_effort=0.017853
objective_height=0.299247
objective_ligament=0.001491
solver_duration=947.511888
status=Solve_Succeeded
success=true
DataType=double
version=3
OpenSimVersion=4.5
endheader
time	/jointset/ground_pelvis/pelvis_tilt/value	/jointset/ground_pelvis/pelvis_tx/value	/jointset/ground_pelvis/pelvis_ty/value	/jointset/hip_r/hip_flexion_r/value	/jointset/hip_r/hip_adduction_r/value	/jointset/hip_r/hip_rotation_r/value	/jointset/back/lumbar_extension/value	/jointset/patellofemoral_r/patellar_flexion_r/value	/jointset/knee_r/knee_flexion_r/value	/jointset/knee_r/knee_adduction_r/value	/jointset/knee_r/knee_rotation_r/value	/jointset/ankle_r/ankle_angle_r/value	/jointset/subtalar_r/subtalar_angle_r/value	/jointset/ground_pelvis/pelvis_tilt/speed	/jointset/ground_pelvis/pelvis_tx/speed	/jointset/ground_pelvis/pelvis_ty/speed	/jointset/hip_r/hip_flexion_r/speed	/jointset/hip_r/hip_adduction_r/speed	/jointset/hip_r/hip_rotation_r/speed	/jointset/back/lumbar_extension/speed	/jointset/patellofemoral_r/patellar_flexion_r/speed	/jointset/knee_r/knee_flexion_r/speed	/jointset/knee_r/knee_adduction_r/speed	/jointset/knee_r/knee_rotation_r/speed	/jointset/ankle_r/ankle_angle_r/speed	/jointset/subtalar_r/subtalar_angle_r/speed	/forceset/tau_hip_flexion_r	/forceset/tau_hip_adduction_r	/forceset/tau_hip_rotation_r	/forceset/tau_knee_flexion_r	/forceset/tau_ankle_angle_r	/forceset/tau_subtalar_angle_r	/forceset/tau_lumbar_extension	lambda_cid13_p0	lambda_cid14_p0	lambda_cid14_p1	lambda_cid14_p2	lambda_cid14_p3	lambda_cid14_p4	lambda_cid14_p5	/jointset/ground_pelvis/pelvis_tilt/accel	/jointset/ground_pelvis/pelvis_tx/accel	/jointset/ground_pelvis/pelvis_ty/accel	/jointset/hip_r/hip_flexion_r/accel	/jointset/hip_r/hip_adduction_r/accel	/jointset/hip_r/hip_rotation_r/accel	/jointset/back/lumbar_extension/accel	/jointset/patellofemoral_r/patellar_flexion_r/accel	/jointset/knee_r/knee_flexion_r/accel	/jointset/knee_r/knee_adduction_r/accel	/jointset/knee_r/knee_rotation_r/accel	/jointset/ankle_r/ankle_angle_r/accel	/jointset/subtalar_r/subtalar_angle_r/accel	gamma_cid13_p0	gamma_cid14_p0	gamma_cid14_p1	gamma_cid14_p2	gamma_cid14_p3	gamma_cid14_p4	gamma_cid14_p5
0	-0.009783258038810192	0.1331266306882609	0.9328354603554866	0.1934211968871041	-0.2343138207515051	-0.2360188352161336	-0.2903787966825928	0.23117862733634	0.2311786273363406	0.1462665258341068	0.171546564710181	0.089344008118978	0.05619170925854979	0	0	0	0	0	0	0	0	0	0	0	0	0	0.07791857892735995	-0.04429054228836803	0.006309063813519393	-0.2310080440444931	0.1206097518067284	-0.1089120472133126	0.001605147388205774	-29.92333044131617	-8.986152369004996	-43.72301336344828	1.509012305619929	-8.21826230470999	-624.6915694363958	30.03259189389268	-0.2750062474018155	-1.050471218912325	-0.4889069534112433	5.583328706222521	0.2165473656842006	1.523757194497969	-5.175232687730037	7.121398774418109	7.121398774418645	-2.29901509744231	0.2482819090433059	2.424602476156529	0.9359189988083025	3.177290813318462e-08	2.970287774565077e-08	-1.970381703138861e-07	1.715526892905382e-07	-3.440834495755653e-09	1.293277890497022e-07	-1.872202453431743e-07
0.01	-0.009794851422905253	0.1330766815244353	0.9328117243734076	0.1936916620116338	-0.2343013179971923	-0.2359418545072611	-0.2906369319960653	0.2315280419209483	0.2315280419209516	0.1461498471363575	0.1715553501424027	0.08946593560964146	0.05624076500215789	-0.00240434274066908	-0.009745003462367207	-0.004737276479560368	0.0536918807878301	0.002462957915271304	0.0153513087185499	-0.05124592551700421	0.06954626757476307	0.06954626757476545	-0.0231641039246648	0.001717541500222942	0.02450444092316529	0.009800767507675849	0.08234639174624284	-0.06234351013237323	0.00541808935808323	-0.2443524126015529	0.1390229800387787	-0.1001729813919553	-0.0002667783812260444	-29.92674738669364	-2.614202377578531	-38.88781058518558	0.8247938650655116	-14.84622160447415	-626.0680069380325	41.45314013578759	-0.2359996151895282	-0.8997912026095611	-0.4646241392417149	5.201946803279152	0.2555287703227108	1.534126875356061	-5.042101907131102	6.820736992138678	6.82073699213862	-2.299378603106959	0.1275921112539651	2.481211394927444	1.000587454479981	4.391984769774281e-08	2.322732868432107e-08	-2.820964675217229e-07	2.306954029028175e-07	1.465657127192407e-08	6.013983695838207e-08	-2.89649617190613e-07
0.02	-0.00983305849996253	0.1329366270674438	0.9327409183977308	0.1944870117516902	-0.2342653139105525	-0.2357126988782406	-0.2913960924493953	0.2325628184299468	0.2325628184299465	0.1458066732867797	0.171580131357734	0.08983647680844202	0.0563875147863893	-0.005322738592957171	-0.01802105863316488	-0.009413998719598936	0.1049769231042889	0.004700266465505157	0.03043498403000611	-0.1002050279718303	0.1370723848748586	0.1370723848748587	-0.04529903037446746	0.003199156630134329	0.04972274162756861	0.01953880812466268	0.08677420456516903	-0.08039647797637532	0.004527114902510748	-0.2576967811585678	0.1574362082708444	-0.09143391557058776	-0.002138704150633992	-29.93669688446145	3.812982465412786	-34.06164332664428	0.1633843502128362	-21.45702089538187	-626.5494466551664	52.6245089894641	-0.3778168697256408	-0.7566815605984022	-0.4767961055068843	5.101961011948266	0.1714174926767135	1.47023051307923	-4.717868075294433	6.717368719484591	6.717368719484209	-2.093179602469887	0.2010966349809919	2.56737443240415	0.9233736206705079	5.6066787262301e-08	1.675177962299137e-08	-3.671547647295597e-07	2.898381165150967e-07	3.27539770396038e-08	-9.048115132938098e-09	-3.920789890380517e-07
0.03	-0.009901962926121055	0.1327185368365087	0.9326235687020135	0.1957854571260964	-0.2342080217929421	-0.2353355150906475	-0.2926344038012427	0.2342632357378626	0.2342632357378643	0.1452470283771986	0.1716200146020995	0.09045967833259613	0.0566305561928909	-0.008419584486006102	-0.02561380195340973	-0.01404984757219516	0.1545201857890822	0.006747080893963917	0.04492509611572968	-0.1471955758742469	0.2027060868890401	0.202706086889034	-0.06651830738049125	0.00475627660731993	0.07473324543396487	0.02900869246946863	0.08107131186775654	-0.07815522203783257	0.005315555919001995	-0.2490850015847059	0.144139564767332	-0.08788311179796077	0.002190443008581926	-29.95285982782615	-0.3222972004384103	-33.08427859185904	-0.1744025888800391	-18.5067791359957	-627.1874333276049	53.49549108957038	-0.2698305154277774	-0.7630862537263001	-0.4560674365592417	4.851716909742147	0.2196595678809029	1.42695571694061	-4.650398169248692	6.440611207058863	6.440611207058129	-2.119580549027012	0.1298924976871566	2.440246738020764	0.9496554597825837	6.410397899745405e-08	1.87372305696443e-08	-4.069149720825743e-07	3.286146666452184e-07	3.655655784753351e-08	-3.566479428020425e-08	-4.381328156607649e-07
0.04	-0.01000067822447277	0.1324240160651733	0.9324600428854858	0.1975735767299493	-0.2341305923010561	-0.2348157193500713	-0.2943347706364203	0.2366108381188544	0.2366108381188543	0.1444785349376683	0.1716748436099604	0.09132745657146782	0.05696646836651995	-0.0112849130323952	-0.03330716671320384	-0.01864922288167044	0.2029117689937652	0.008727741320442593	0.05895737462632191	-0.1926161246380024	0.2665093994901797	0.2665093994901691	-0.08706873636085012	0.006188309328497188	0.09863808457089845	0.03811296155015228	0.07536841917031532	-0.07591396609929781	0.006103996935497495	-0.2404732220108564	0.1308429212638136	-0.0843323080253453	0.006519590167779241	-29.97458660084972	-4.406039410386533	-32.11388025725633	-0.4928141417721342	-15.54994566567041	-627.0003551287275	54.14147166415328	-0.3315134003936945	-0.7768058485082457	-0.4695013968826984	4.87162511592622	0.1581866922807001	1.378663798052961	-4.403868247562232	6.351290836876193	6.35129083687619	-1.959409997336912	0.1760791837793208	2.346241498511628	0.8502505678460553	7.205643366395958e-08	2.089713512470925e-08	-4.45741198201469e-07	3.669712958788008e-07	4.006439999649929e-08	-6.140371522243837e-08	-4.830242599077106e-07
0.05	-0.01012732622756325	0.1320527113360087	0.93225056986939	0.1998395208802408	-0.2340339358859651	-0.2341580919799557	-0.2964808522295729	0.2395874235199011	0.239587423519902	0.1435084178321428	0.1717435699922003	0.09242950358100767	0.05739152906084798	-0.01402957700864903	-0.0409049407363648	-0.02324873858522497	0.2500276286182573	0.01058527718474941	0.07248500966735927	-0.2362965874773717	0.3285007921314629	0.3285007921314479	-0.1068237316484102	0.007530811915196842	0.1216646306898142	0.04685387375331684	0.07142952678667906	-0.07093598694443001	0.00645418634925825	-0.2368627918559071	0.1260846881057716	-0.08470602851970604	0.009878905056933417	-30.00124822961357	-5.961563434488658	-32.56837001150307	-0.3977146398579691	-14.82993048132444	-627.2595105080695	52.1096153766251	-0.2436704334735963	-0.7439293804832295	-0.4556928829908792	4.594155760546666	0.1968096686454315	1.327419872373708	-4.304594324883664	6.077015713995642	6.07701571399495	-1.963930680776243	0.1094819192457781	2.264865941905974	0.8791896543713007	6.648794926459015e-08	1.547504650465347e-08	-3.955807277234038e-07	3.490194985634319e-07	3.946456925656042e-08	-9.944482664671128e-08	-4.508273840807663e-07
0.06	-0.01028096637785993	0.13160689562636	0.9319949984510792	0.2025691415017461	-0.2339192495852033	-0.2333676669563813	-0.2990546302556704	0.2431747132946121	0.2431747132946128	0.1423446734964916	0.1718249506249243	0.09375861700640142	0.05790263449877158	-0.01668334247420886	-0.048209362810055	-0.02786890332469691	0.2956470632361835	0.01233371845464507	0.08551690531818178	-0.2781554112271181	0.3886502742223971	0.3886502742223776	-0.1257941823883992	0.008719159427115767	0.1440513677417082	0.05532191026926755	0.06749063440304695	-0.06595800778956017	0.00680437576298993	-0.2332523617009473	0.1213264549477344	-0.08507974901406257	0.01323821994608671	-30.03196740109351	-7.470362690094625	-33.03135061100023	-0.2822179359667046	-14.10615451049578	-626.7639504627223	49.87073719438619	-0.3133336982549115	-0.7181354586140893	-0.4736312040661783	4.572340114613022	0.1363677733984728	1.279515920009986	-4.039540429637644	5.982908726806372	5.982908726806368	-1.802501087822715	0.1452481688231716	2.218279685107278	0.7956754304032915	6.035016216771021e-08	9.733716066697869e-09	-3.416734489675719e-07	3.286968201302124e-07	3.869178386866767e-08	-1.380039250386489e-07	-4.15384684250711e-07
0.07000000000000001	-0.01046094163070269	0.1310894555136941	0.931693012999001	0.2057477988816642	-0.2337879020206055	-0.2324499191756743	-0.302037903566157	0.2473544266074592	0.2473544266074595	0.1409956948387249	0.1719180498772749	0.0953082603390147	0.05849670136526409	-0.01930228433365193	-0.05523421912452348	-0.03253794231182826	0.3398510481129143	0.01392662697159052	0.09793982689112174	-0.3182186243865625	0.446988629812986	0.4469886298129901	-0.143889183697636	0.009870680839813864	0.1657674014817463	0.06345835149006908	0.06350359483360753	-0.06665660283507185	0.007199437629565946	-0.2300411367099366	0.1153475160295395	-0.08046125003886155	0.01662308756237392	-30.06591526980007	-9.13162389396209	-31.26607552586985	-0.6211465822779711	-13.39727600676729	-626.6694719973754	52.3438568375911	-0.2347537072359789	-0.6879868990834376	-0.465031597339561	4.309427298603173	0.1693989364476331	1.20981639999646	-3.947617786574548	5.713723199430119	5.713723199433675	-1.796160690082446	0.09566271882955765	2.131785233968072	0.817647839406046	5.042318331166027e-08	3.203524076311144e-09	-2.587119049732845e-07	3.109155320474727e-07	3.508916952110053e-08	-1.651148849358812e-07	-3.717879549219093e-07
0.08	-0.0106668221576274	0.1305031016016396	0.9313440388867912	0.209361496035231	-0.2336408960617171	-0.231410714954426	-0.3054133902137328	0.2521084083210617	0.252108408321062	0.1394691339603435	0.1720217760620192	0.09707176801213174	0.05917113651826211	-0.02186439729098108	-0.06199212268779706	-0.03726663535104329	0.3826550179656464	0.01546539731273789	0.1098081934264811	-0.3565980786450772	0.5035039543733743	0.5035039543734029	-0.1613106265112044	0.01084454590596828	0.1868242358424246	0.07139556757036923	0.05951655526417101	-0.06735519788058479	0.007594499496140976	-0.2268299117189215	0.1093685771113462	-0.07584275106366166	0.02000795517866209	-30.10203767760968	-10.74899183526438	-29.50236074708755	-0.9492657720783908	-12.69761441333169	-625.8971791207417	54.6518066726815	-0.3019679178321422	-0.6647449083751119	-0.4855620144829094	4.292337109813286	0.1255401382388587	1.168604912493866	-3.702788649451734	5.618302520766218	5.618302520766416	-1.667789388689026	0.1097168995144314	2.086439809235305	0.7558304023030193	4.025174047114777e-08	-3.377562207780803e-09	-1.738758922539355e-07	2.932982046325059e-07	3.130398556323182e-08	-1.914872552528098e-07	-3.276651591738338e-07
0.09	-0.01089818727836338	0.1298504817018819	0.9309473976545429	0.2133964242536707	-0.2334790434894013	-0.2302560515481293	-0.3091640947927405	0.2574185777694722	0.2574185777694704	0.1377722363933607	0.1721349225941972	0.09904246657893181	0.05992361366548438	-0.02439443146740832	-0.06848906705258082	-0.04207536390472863	0.4240929958347033	0.01689371218381175	0.1210340224406645	-0.3932673883711495	0.5582232868969408	0.5582232868969352	-0.1779492237006285	0.01174752810012671	0.2072007554060704	0.07906388036813664	0.05517115799736051	-0.06485977763875322	0.007948339391274185	-0.2235528770797092	0.1035980197577068	-0.07325294646129876	0.02367282346166776	-30.13932856045536	-12.43706512393116	-28.67394266820913	-1.080464683800533	-11.89932439111773	-625.5623364434356	54.90245710372507	-0.2263844794311606	-0.6357444692388301	-0.480629920400917	4.033887464600545	0.1498063548597668	1.086050216522157	-3.607684816400915	5.352743470424485	5.352743470419183	-1.643937400207746	0.07505483727856195	1.996048586755183	0.7669435942374603	2.551302440715864e-08	-1.190649563607254e-08	-6.130137893371125e-08	2.344284285957583e-07	2.558601103058528e-08	-2.232445447726625e-07	-2.363140898298819e-07
